- 
http://www.Speed.Cd 
       
http://www.Speed.Cd      fast  and The Hottest Private Tracker on the net

(((--Registration will be open on june every weekend--)))

Please Seed back to make the speed Faster!!!

------------------nfo--------------------------
-                                                                                                     
       
     
     
       
       
     
     
                                         
                                         
                EXVID                    
                                         
         
                                         
         Filled the Archives             
                                         
         
                                         
                With:                    
                                         
         
                                         
                                    
     E240                           
                                    
     SP               (C) 2009      
                                         
     
     
     
                                                                                  
                                                                                   
                 Undefeatable.1993.WS.DVDRip.XviD-EXViD                             
                                                                                   
                                                                                  
     
                                                                                               
EXViD aims to iNTERNAL those releases which have been lost in the archives.
EXViD aims to PRE non-internal releases which have poor sources and are likely skipped by others.
 
http://www.imdb.com/title/tt0111552/
Subtitles: None
Date: 2011.08

Director: Godfrey Ho

Genres: Action | Crime | Thriller

Plot:
Kristi Jones (Cynthia Rothrock) avenges her sister's death at the hands of a crazed martial arts
rapist.

Cast:

Cynthia Rothrock 	 ... 	 Kristi Jones
Don Niam 	 ... 	 Stingray
John Miller 	 ... 	 Nick DiMarco
Donna Jason 	 ... 	 Jennifer Simmons
Sunny David 	 ... 	 Karen
Emille Davazac 	 ... 	 Anna
Hang Yip Yim 	 ... 	 Hank
Richard Yuen 	 ... 	 Ryko (as Ricky Yuen)
Gerald Klein 	 ... 	 Mike (as Jerald Klein)
William Buckley 	 ... 	 Police Captain
Mike Sutton 	 ... 	 Police Undercover
Michael S. Walter 	 ... 	 Lou (as Michael Walter)
Linn Thai 	 ... 	 Eagle Lee
Shelton Lee 	 ... 	 Diablo
Scott Shelton 	 ... 	 Bear


Stats:
Format                           : AVI
Format/Info                      : Audio Video Interleave
File size                        : 699 MiB
Duration                         : 1h 35mn
Overall bit rate                 : 1 028 Kbps
Writing application              : Nandub v1.0rc2
Writing library                  : Nandub build 1852/release

Video
ID                               : 0
Format                           : MPEG-4 Visual
Format profile                   : Advanced Simple@L5
Format settings, BVOP            : 2
Format settings, QPel            : No
Format settings, GMC             : No warppoints
Format settings, Matrix          : Default (H.263)
Codec ID                         : XVID
Codec ID/Hint                    : XviD
Duration                         : 1h 35mn
Bit rate                         : 900 Kbps
Width                            : 592 pixels
Height                           : 336 pixels
Display aspect ratio             : 16:9
Frame rate                       : 29.970 fps
Color space                      : YUV
Chroma subsampling               : 4:2:0
Bit depth                        : 8 bits
Scan type                        : Progressive
Compression mode                 : Lossy
Bits/(Pixel*Frame)               : 0.151
Stream size                      : 612 MiB (88%)
Writing library                  : XviD 64

Audio
ID                               : 1
Format                           : MPEG Audio
Format version                   : Version 1
Format profile                   : Layer 3
Mode                             : Joint stereo
Mode extension                   : MS Stereo
Codec ID                         : 55
Codec ID/Hint                    : MP3
Duration                         : 1h 35mn
Bit rate mode                    : Variable
Bit rate                         : 114 Kbps
Nominal bit rate                 : 128 Kbps
Channel(s)                       : 2 channels
Sampling rate                    : 48.0 KHz
Compression mode                 : Lossy
Stream size                      : 77.4 MiB (11%)
Alignment                        : Aligned on interleaves
Interleave, duration             : 24 ms (0.72 video frame)
Interleave, preload duration     : 478 ms
Writing library                  : LAME3.98r
Encoding settings                : -m j -V 4 -q 3 -lowpass 17 --abr 128




Release notes:
The 2006 FiCO rip was FS. The WS DVD wasn't available until 2009.
The source was fieldblended and seemingly impossible to IVTC. Vobsample included.

Looking for:
75TB+ Archives
DUTCH/FLEMiSH Archives
                                                                                                    
Greets: CRBS EPiSODE FiCO FLS iLS KLASSiGER LiPSYNC MADE NODLABS RUNNER SPRiNTER      
   

                                                                    ASCII DONE BY XX^NFO 2oo9